<?xml version="1.0" encoding="utf-8"?>
<!-- Generator: Adobe Illustrator 24.0.2, SVG Export Plug-In . SVG Version: 6.00 Build 0)  -->
<svg version="1.1" id="Layer_1" xmlns="http://www.w3.org/2000/svg" xmlns:xlink="http://www.w3.org/1999/xlink" x="0px" y="0px"
	 viewBox="0 0 20 20" style="enable-background:new 0 0 20 20;" xml:space="preserve">
<style type="text/css">
	.st0{fill-rule:evenodd;clip-rule:evenodd;fill:#FFFFFF;}
	.st1{fill:#D1D5D9;}
</style>
<g>
	<path class="st0" d="M6,19c-2.76,0-5-2.24-5-5V6c0-2.76,2.24-5,5-5h8c2.76,0,5,2.24,5,5v8c0,2.76-2.24,5-5,5H6z"/>
	<path class="st1" d="M14,2c2.21,0,4,1.79,4,4v8c0,2.21-1.79,4-4,4H6c-2.21,0-4-1.79-4-4V6c0-2.21,1.79-4,4-4H14 M14,0H6
		C2.69,0,0,2.69,0,6v8c0,3.31,2.69,6,6,6h8c3.31,0,6-2.69,6-6V6C20,2.69,17.31,0,14,0L14,0z"/>
</g>
</svg>
