<?xml version="1.0" encoding="utf-8"?>
<!-- Generator: Adobe Illustrator 24.0.2, SVG Export Plug-In . SVG Version: 6.00 Build 0)  -->
<svg version="1.1" id="Layer_1" xmlns="http://www.w3.org/2000/svg" xmlns:xlink="http://www.w3.org/1999/xlink" x="0px" y="0px"
	 viewBox="0 0 20 20" style="enable-background:new 0 0 20 20;" xml:space="preserve">
<style type="text/css">
	.st0{fill-rule:evenodd;clip-rule:evenodd;fill:#007AFE;}
	.st1{fill:#FFFFFF;}
</style>
<g>
	<path class="st0" d="M6,0h8c3.31,0,6,2.69,6,6v8c0,3.31-2.69,6-6,6H6c-3.31,0-6-2.69-6-6V6C0,2.69,2.69,0,6,0z"/>
</g>
<polygon class="st1" points="14,6 14,7 13,7 13,8 12,8 12,9 11,9 11,10 10,10 10,11 9,11 9,12 8,12 7,12 7,11 6,11 6,10 4,10 4,11 
	5,11 5,12 6,12 6,13 7,13 7,14 9,14 9,13 10,13 10,12 11,12 11,11 12,11 12,10 13,10 13,9 14,9 14,8 15,8 15,7 16,7 16,6 "/>
</svg>
