<?xml version="1.0" encoding="utf-8"?>
<!-- Generator: Adobe Illustrator 28.3.0, SVG Export Plug-In . SVG Version: 6.00 Build 0)  -->
<svg version="1.1" id="Layer_1" xmlns="http://www.w3.org/2000/svg" xmlns:xlink="http://www.w3.org/1999/xlink" x="0px" y="0px"
	 viewBox="0 0 9 8" style="enable-background:new 0 0 9 8;" xml:space="preserve">
<style type="text/css">
	.st0{fill:#595A5A;}
</style>
<g>
	<polygon class="st0" points="1,2 2,2 2,3 4,3 4,2 3,2 3,1 2,1 2,0 0,0 0,1 1,1 	"/>
	<polygon class="st0" points="7,0 7,1 6,1 6,2 5,2 5,3 7,3 7,2 8,2 8,1 9,1 9,0 	"/>
	<polygon class="st0" points="8,6 7,6 7,5 6,5 6,4.01 6,3.01 5,3.01 4,3.01 3,3.01 3,4.01 3,5 2,5 2,6 1,6 1,7 0,7 0,8 2,8 2,7 3,7 
		3,6 4,6 4,5.01 5,5.01 5,6 6,6 6,7 7,7 7,8 9,8 9,7 8,7 	"/>
</g>
</svg>
