<svg width="18" height="18" viewBox="0 0 18 18" fill="none" xmlns="http://www.w3.org/2000/svg">
<path d="M8.94981 15.8492C5.4625 15.8492 1.7002 13.6618 1.7002 8.8621C1.7002 4.06237 5.4625 1.875 8.94981 1.875C10.8872 1.875 12.6746 2.51246 13.9995 3.6749C15.437 4.94982 16.1994 6.74972 16.1994 8.8621C16.1994 10.9745 15.437 12.7619 13.9995 14.0368C12.6746 15.1992 10.8747 15.8492 8.94981 15.8492Z" fill="url(#paint0_radial_744_3179)"/>
<path d="M14.9358 4.70898C15.602 5.78392 15.9495 7.06385 15.9495 8.48752C15.9495 10.5999 15.1871 12.3873 13.7496 13.6622C12.4247 14.8247 10.6248 15.4746 8.69991 15.4746C6.44253 15.4746 4.07516 14.5559 2.67773 12.6073C4.02266 14.8147 6.55253 15.8496 8.9499 15.8496C10.8748 15.8496 12.6747 15.1996 13.9996 14.0372C15.4371 12.7623 16.1995 10.9749 16.1995 8.8625C16.1995 7.27009 15.7658 5.85517 14.9358 4.70898Z" fill="#EB8F00"/>
<path d="M10.6998 12.5472C10.6998 13.4309 9.98362 14.1471 9.09992 14.1471C8.21621 14.1471 7.5 13.4309 7.5 12.5472C7.5 11.6635 8.21621 10.9473 9.09992 10.9473C9.98112 10.9448 10.6973 11.656 10.6998 12.5372C10.6998 12.5409 10.6998 12.5434 10.6998 12.5472Z" fill="#422B0D"/>
<path d="M6.33393 6.86523C5.81021 6.86523 5.33398 7.30771 5.33398 8.04267C5.33398 8.77762 5.81021 9.21885 6.33393 9.21885C6.85765 9.21885 7.33388 8.77637 7.33388 8.04267C7.33388 7.30896 6.85765 6.86523 6.33393 6.86523Z" fill="#422B0D"/>
<path d="M6.28477 7.35534C6.10728 7.27035 5.89354 7.34534 5.8073 7.52283C5.74105 7.66157 5.77105 7.82781 5.88229 7.93531C6.05978 8.0203 6.27352 7.94531 6.35977 7.76782C6.42601 7.62907 6.39602 7.46283 6.28477 7.35534Z" fill="#896024"/>
<path d="M11.7499 6.86523C11.2262 6.86523 10.75 7.30771 10.75 8.04267C10.75 8.77762 11.2262 9.21885 11.7499 9.21885C12.2737 9.21885 12.7499 8.77637 12.7499 8.04267C12.7499 7.30896 12.2762 6.86523 11.7499 6.86523Z" fill="#422B0D"/>
<path d="M11.7032 7.35534C11.5257 7.27035 11.312 7.34534 11.2258 7.52283C11.1595 7.66157 11.1895 7.82781 11.3008 7.93531C11.4782 8.0203 11.692 7.94531 11.7782 7.76782C11.8445 7.62907 11.8145 7.46283 11.7032 7.35534Z" fill="#896024"/>
<path d="M4.58784 5.74784C4.50034 5.83909 4.3541 5.84284 4.26286 5.75409C4.18036 5.67535 4.16911 5.54661 4.23536 5.45411C4.3766 5.25037 4.55034 5.07288 4.75033 4.92664C5.27405 4.52291 5.93027 4.33168 6.58898 4.39167C6.90021 4.43042 6.83897 4.8279 6.56273 4.85415C5.82027 4.91289 5.12156 5.22912 4.58784 5.74784Z" fill="#422B0D"/>
<path d="M13.4708 5.7759C13.5583 5.86715 13.7046 5.8709 13.7958 5.78215C13.8783 5.70341 13.8896 5.57466 13.8233 5.48217C13.6846 5.28093 13.5121 5.10469 13.3146 4.96095C12.7909 4.55722 12.1347 4.36598 11.476 4.42723C11.166 4.46598 11.226 4.86221 11.5022 4.88845C12.2422 4.9472 12.9371 5.26093 13.4708 5.7759Z" fill="#422B0D"/>
<defs>
<radialGradient id="paint0_radial_744_3179" cx="0" cy="0" r="1" gradientUnits="userSpaceOnUse" gradientTransform="translate(8.94981 8.8621) scale(7.11958 7.11955)">
<stop offset="0.5" stop-color="#FDE030"/>
<stop offset="0.92" stop-color="#F7C02B"/>
<stop offset="1" stop-color="#F4A223"/>
</radialGradient>
</defs>
</svg>
