<svg width="18" height="18" viewBox="0 0 18 18" fill="none" xmlns="http://www.w3.org/2000/svg">
<path d="M5.44558 6.09181C5.37432 6.85191 5.32432 8.19708 5.77312 8.76965C5.77312 8.76965 5.56185 7.29197 7.45583 5.43798C8.21843 4.69164 8.3947 3.67651 8.12842 2.91517C7.97715 2.48386 7.70086 2.12757 7.46083 1.87879C7.32082 1.73252 7.42833 1.49124 7.6321 1.49999C8.86476 1.55499 10.8625 1.89754 11.7114 4.0278C12.0839 4.96292 12.1114 5.92929 11.9339 6.91192C11.8214 7.5395 11.4213 8.93467 12.3339 9.10594C12.9853 9.22846 13.3003 8.71089 13.4416 8.33835C13.5003 8.18333 13.7041 8.14457 13.8141 8.26834C14.9143 9.51975 15.008 10.9937 14.7805 12.2626C14.3404 14.7154 11.8564 16.5006 9.38857 16.5006C6.30569 16.5006 3.85163 14.7367 3.2153 11.5437C2.95902 10.2548 3.08904 7.70452 5.07679 5.90429C5.2243 5.76927 5.46558 5.88929 5.44558 6.09181Z" fill="url(#paint0_radial_714_28)"/>
<path d="M10.5149 10.6787C9.37849 9.21606 9.8873 7.5471 10.1661 6.88201C10.2036 6.7945 10.1036 6.71199 10.0248 6.76575C9.53601 7.09829 8.53463 7.88089 8.06832 8.98228C7.43699 10.4712 7.482 11.2001 7.8558 12.0902C8.08082 12.6265 7.81954 12.7403 7.68827 12.7603C7.56076 12.7803 7.44324 12.6952 7.34948 12.6065C7.0807 12.3502 6.88692 12.0164 6.79441 11.6564C6.77441 11.5789 6.67315 11.5576 6.62689 11.6214C6.27685 12.1052 6.09557 12.8815 6.08682 13.4303C6.05932 15.1268 7.46075 16.502 9.15596 16.502C11.2925 16.502 12.8489 14.1392 11.6213 12.1639C11.265 11.5889 10.9299 11.2126 10.5149 10.6787Z" fill="url(#paint1_radial_714_28)"/>
<defs>
<radialGradient id="paint0_radial_714_28" cx="0" cy="0" r="1" gradientUnits="userSpaceOnUse" gradientTransform="translate(8.77801 16.5395) rotate(-179.751) scale(8.82456 14.4793)">
<stop offset="0.3144" stop-color="#FF9800"/>
<stop offset="0.6616" stop-color="#FF6D00"/>
<stop offset="0.9715" stop-color="#F44336"/>
</radialGradient>
<radialGradient id="paint1_radial_714_28" cx="0" cy="0" r="1" gradientTransform="matrix(-0.0932598 9.23273 6.94832 0.0702106 9.27345 7.75823)" gradientUnits="userSpaceOnUse">
<stop offset="0.2141" stop-color="#FFF176"/>
<stop offset="0.3275" stop-color="#FFF27D"/>
<stop offset="0.4868" stop-color="#FFF48F"/>
<stop offset="0.6722" stop-color="#FFF7AD"/>
<stop offset="0.7931" stop-color="#FFF9C4"/>
<stop offset="0.8221" stop-color="#FFF8BD" stop-opacity="0.804"/>
<stop offset="0.8627" stop-color="#FFF6AB" stop-opacity="0.529"/>
<stop offset="0.9101" stop-color="#FFF38D" stop-opacity="0.2088"/>
<stop offset="0.9409" stop-color="#FFF176" stop-opacity="0"/>
</radialGradient>
</defs>
</svg>
