<?xml version="1.0" encoding="utf-8"?>
<!-- Generator: Adobe Illustrator 16.0.0, SVG Export Plug-In . SVG Version: 6.00 Build 0)  -->
<!DOCTYPE svg PUBLIC "-//W3C//DTD SVG 1.1//EN" "http://www.w3.org/Graphics/SVG/1.1/DTD/svg11.dtd">
<svg version="1.1" id="Layer_1" xmlns="http://www.w3.org/2000/svg" xmlns:xlink="http://www.w3.org/1999/xlink" x="0px" y="0px"
	 width="18.004px" height="18px" viewBox="0 0 18.004 18" enable-background="new 0 0 18.004 18" xml:space="preserve">
<g>
	<path fill="#909090" d="M17.96,10.7c-0.08-0.26-0.25-0.47-0.48-0.59l-1.49-0.791C16,9.21,16,9.1,16,9c0-0.34-0.021-0.69-0.08-1.05
		l1.39-0.94c0.22-0.14,0.37-0.37,0.43-0.63c0.051-0.26-0.01-0.53-0.159-0.76l-2.23-3.31c-0.15-0.22-0.38-0.37-0.64-0.42
		c-0.261-0.06-0.53,0-0.75,0.15l-1.4,0.94c-0.25-0.14-0.3-0.16-0.56-0.3V1c0-0.55-0.44-1-1-1H7C6.45,0,6,0.45,6,1v1.68
		c-0.41,0.2-0.8,0.43-1.17,0.71L3.35,2.6C2.86,2.34,2.25,2.52,2,3.01L0.12,6.54C-0.01,6.77-0.03,7.05,0.04,7.3
		C0.12,7.56,0.3,7.77,0.53,7.89l1.48,0.79C2.01,8.79,2,8.9,2,9c0,0.34,0.03,0.69,0.09,1.05l-1.4,0.94
		c-0.22,0.14-0.37,0.37-0.42,0.63c-0.05,0.26,0,0.53,0.15,0.76l2.24,3.311c0.15,0.22,0.38,0.369,0.64,0.42
		c0.26,0.06,0.53,0,0.75-0.15l1.39-0.94C5.7,15.16,5.75,15.18,6,15.32V17c0,0.55,0.45,1,1,1h4c0.56,0,1-0.45,1-1v-1.68
		c0.42-0.2,0.81-0.431,1.17-0.71l1.49,0.79c0.489,0.26,1.09,0.08,1.35-0.41l1.88-3.53C18.01,11.23,18.04,10.95,17.96,10.7
		 M11.949,9.59c-0.229,1.17-1.189,2.13-2.359,2.351c-2.11,0.409-3.93-1.421-3.53-3.53c0.22-1.17,1.18-2.13,2.36-2.35
		C10.529,5.65,12.35,7.48,11.949,9.59"/>
</g>
</svg>
