<svg width="18" height="18" viewBox="0 0 18 18" fill="none" xmlns="http://www.w3.org/2000/svg">
<path d="M5.00506 16.4606C4.83132 16.3731 4.74758 16.1706 4.81132 15.9856L5.3138 14.5144L6.29749 15.1781L5.50254 16.3331C5.39254 16.4931 5.18005 16.548 5.00506 16.4606Z" fill="#82AEC0"/>
<path d="M12.921 16.4605C13.0947 16.373 13.1785 16.1705 13.1147 15.9855L12.606 14.4968L11.5698 15.093L12.4235 16.333C12.5335 16.493 12.746 16.548 12.921 16.4605Z" fill="#82AEC0"/>
<path d="M5.31385 14.5144L5.05762 15.2644C5.21636 15.1731 5.42385 15.1819 5.58884 15.2631C5.75383 15.3444 5.88007 15.4869 5.97632 15.6443L6.26755 15.2219C6.26755 15.2044 5.31385 14.5144 5.31385 14.5144Z" fill="#2F7889"/>
<path d="M12.6097 14.4956L12.8872 15.3206C12.7285 15.2293 12.5385 15.2318 12.3722 15.3131C12.2072 15.3943 12.081 15.5368 11.9847 15.6943L11.6035 15.1406L12.6097 14.4956Z" fill="#2F7889"/>
<path d="M8.96284 15.4945C11.8634 15.4945 14.2148 13.1432 14.2148 10.2426C14.2148 7.34208 11.8634 4.99072 8.96284 4.99072C6.0623 4.99072 3.71094 7.34208 3.71094 10.2426C3.71094 13.1432 6.0623 15.4945 8.96284 15.4945Z" fill="#FFEFA1"/>
<path d="M8.96325 15.9495C12.3713 15.9495 15.134 13.1867 15.134 9.77869C15.134 6.37066 12.3713 3.60791 8.96325 3.60791C5.55523 3.60791 2.79248 6.37066 2.79248 9.77869C2.79248 13.1867 5.55523 15.9495 8.96325 15.9495Z" fill="#CC2929"/>
<path d="M8.96332 15.8895C12.167 15.8895 14.764 13.2925 14.764 10.0888C14.764 6.88516 12.167 4.28809 8.96332 4.28809C5.75967 4.28809 3.1626 6.88516 3.1626 10.0888C3.1626 13.2925 5.75967 15.8895 8.96332 15.8895Z" fill="#FF4638"/>
<path d="M8.96287 15.0932C11.7267 15.0932 13.9672 12.8527 13.9672 10.0889C13.9672 7.32501 11.7267 5.08447 8.96287 5.08447C6.19903 5.08447 3.9585 7.32501 3.9585 10.0889C3.9585 12.8527 6.19903 15.0932 8.96287 15.0932Z" fill="#FAFAFA"/>
<path d="M9.00007 10.6449C9.30726 10.6449 9.55629 10.3959 9.55629 10.0887C9.55629 9.7815 9.30726 9.53247 9.00007 9.53247C8.69288 9.53247 8.44385 9.7815 8.44385 10.0887C8.44385 10.3959 8.69288 10.6449 9.00007 10.6449Z" fill="#563428"/>
<path d="M8.96304 6.32199C8.86179 6.32199 8.7793 6.2395 8.7793 6.13825V5.58828C8.7793 5.48704 8.86179 5.40454 8.96304 5.40454C9.06428 5.40454 9.14678 5.48704 9.14678 5.58828V6.13825C9.14678 6.2395 9.06428 6.32199 8.96304 6.32199Z" fill="#B2947C"/>
<path d="M8.96304 14.7719C8.86179 14.7719 8.7793 14.6894 8.7793 14.5882V14.0382C8.7793 13.937 8.86179 13.8545 8.96304 13.8545C9.06428 13.8545 9.14678 13.937 9.14678 14.0382V14.5882C9.14678 14.6894 9.06428 14.7719 8.96304 14.7719Z" fill="#B2947C"/>
<path d="M13.4617 10.2713H12.9118C12.8105 10.2713 12.728 10.1888 12.728 10.0875C12.728 9.9863 12.8105 9.90381 12.9118 9.90381H13.4617C13.563 9.90381 13.6455 9.9863 13.6455 10.0875C13.6455 10.19 13.563 10.2713 13.4617 10.2713Z" fill="#B2947C"/>
<path d="M5.0135 10.2713H4.46353C4.36228 10.2713 4.27979 10.1888 4.27979 10.0875C4.27979 9.9863 4.36228 9.90381 4.46353 9.90381H5.0135C5.11474 9.90381 5.19724 9.9863 5.19724 10.0875C5.19724 10.19 5.11474 10.2713 5.0135 10.2713Z" fill="#B2947C"/>
<path d="M8.96304 6.32199C8.86179 6.32199 8.7793 6.2395 8.7793 6.13825V5.58828C8.7793 5.48704 8.86179 5.40454 8.96304 5.40454C9.06428 5.40454 9.14678 5.48704 9.14678 5.58828V6.13825C9.14678 6.2395 9.06428 6.32199 8.96304 6.32199Z" fill="#B2947C"/>
<path d="M8.96304 14.7719C8.86179 14.7719 8.7793 14.6894 8.7793 14.5882V14.0382C8.7793 13.937 8.86179 13.8545 8.96304 13.8545C9.06428 13.8545 9.14678 13.937 9.14678 14.0382V14.5882C9.14678 14.6894 9.06428 14.7719 8.96304 14.7719Z" fill="#B2947C"/>
<path d="M6.82879 6.75954L6.55381 6.28332C6.50256 6.19582 6.53256 6.08333 6.62131 6.03208C6.7088 5.98083 6.82129 6.01083 6.87254 6.09958L7.14753 6.5758C7.19877 6.6633 7.16878 6.77579 7.08003 6.82704C6.99254 6.87704 6.88004 6.84704 6.82879 6.75954Z" fill="#B2947C"/>
<path d="M11.0546 14.0769L10.7796 13.6007C10.7284 13.5132 10.7596 13.4007 10.8471 13.3494C10.9346 13.2982 11.0471 13.3294 11.0983 13.4169L11.3733 13.8932C11.4246 13.9807 11.3933 14.0931 11.3058 14.1444C11.2171 14.1944 11.1046 14.1644 11.0546 14.0769Z" fill="#B2947C"/>
<path d="M6.82879 6.75954L6.55381 6.28332C6.50256 6.19582 6.53256 6.08333 6.62131 6.03208C6.7088 5.98083 6.82129 6.01083 6.87254 6.09958L7.14753 6.5758C7.19877 6.6633 7.16878 6.77579 7.08003 6.82704C6.99254 6.87704 6.88004 6.84704 6.82879 6.75954Z" fill="#B2947C"/>
<path d="M11.0546 14.0769L10.7796 13.6007C10.7284 13.5132 10.7596 13.4007 10.8471 13.3494C10.9346 13.2982 11.0471 13.3294 11.0983 13.4169L11.3733 13.8932C11.4246 13.9807 11.3933 14.0931 11.3058 14.1444C11.2171 14.1944 11.1046 14.1644 11.0546 14.0769Z" fill="#B2947C"/>
<path d="M5.45119 8.27243L4.97497 7.99745C4.88747 7.9462 4.85748 7.83496 4.90747 7.74621C4.95872 7.65871 5.06996 7.62872 5.15871 7.67871L5.63494 7.9537C5.72243 8.00495 5.75243 8.11619 5.70243 8.20494C5.65118 8.29368 5.53869 8.32368 5.45119 8.27243Z" fill="#B2947C"/>
<path d="M12.7681 12.4968L12.2919 12.2218C12.2044 12.1706 12.1744 12.0593 12.2244 11.9706C12.2756 11.8831 12.3869 11.8531 12.4756 11.9031L12.9518 12.1781C13.0393 12.2293 13.0693 12.3406 13.0193 12.4293C12.9681 12.518 12.8556 12.548 12.7681 12.4968Z" fill="#B2947C"/>
<path d="M10.8456 6.82694C10.7581 6.7757 10.7281 6.66445 10.7781 6.57571L11.0531 6.09948C11.1043 6.01199 11.2156 5.98199 11.3043 6.03199C11.3918 6.08323 11.4218 6.19448 11.3718 6.28322L11.0968 6.75945C11.0456 6.84694 10.9343 6.87694 10.8456 6.82694Z" fill="#B2947C"/>
<path d="M6.62145 14.1443C6.53396 14.0931 6.50396 13.9818 6.55396 13.8931L6.82894 13.4169C6.88019 13.3294 6.99143 13.2994 7.08018 13.3494C7.16768 13.4006 7.19767 13.5119 7.14768 13.6006L6.87269 14.0768C6.82144 14.1643 6.70895 14.1943 6.62145 14.1443Z" fill="#B2947C"/>
<path d="M12.2242 8.20476C12.173 8.11726 12.203 8.00477 12.2917 7.95352L12.7679 7.67854C12.8554 7.62729 12.9679 7.65854 13.0192 7.74603C13.0704 7.83353 13.0392 7.94602 12.9517 7.99727L12.4755 8.27226C12.3867 8.3235 12.2742 8.2935 12.2242 8.20476Z" fill="#B2947C"/>
<path d="M4.90705 12.4303C4.8558 12.3428 4.88705 12.2304 4.97455 12.1791L5.45077 11.9041C5.53827 11.8529 5.65076 11.8841 5.70201 11.9716C5.75326 12.0591 5.72201 12.1716 5.63451 12.2229L5.15829 12.4978C5.06954 12.5478 4.95705 12.5178 4.90705 12.4303Z" fill="#B2947C"/>
<path fill-rule="evenodd" clip-rule="evenodd" d="M6.66438 8.78293C6.74963 8.63288 6.94039 8.58035 7.09044 8.6656L9.11658 9.81679C9.26663 9.90205 9.31916 10.0928 9.23391 10.2429C9.14865 10.3929 8.9579 10.4454 8.80785 10.3602L6.78171 9.20899C6.63165 9.12373 6.57913 8.93298 6.66438 8.78293Z" fill="#563428"/>
<path fill-rule="evenodd" clip-rule="evenodd" d="M12.047 8.31577C12.1086 8.4197 12.0742 8.55387 11.9703 8.61545L9.1667 10.2766C9.06277 10.3382 8.92859 10.3039 8.86701 10.1999C8.80543 10.096 8.83976 9.96183 8.9437 9.90025L11.7473 8.23908C11.8512 8.1775 11.9854 8.21183 12.047 8.31577Z" fill="#563428"/>
<path fill-rule="evenodd" clip-rule="evenodd" d="M9.19472 2.1875V3.90241H8.73145V2.1875H9.19472Z" fill="#82AEC0"/>
<path d="M8.97046 2.79762C8.48048 2.79762 7.98926 2.61013 7.98926 2.61013V2.2389C7.98926 2.2389 8.44548 2.03516 8.9942 2.03516C9.54293 2.03516 9.9504 2.2389 9.9504 2.2389V2.61013C9.95165 2.61138 9.46168 2.79762 8.97046 2.79762Z" fill="#82AEC0"/>
<path d="M8.11279 2.22397C8.05904 2.24397 8.05404 2.31771 8.10404 2.34646C8.17653 2.38771 8.26278 2.43021 8.29278 2.42521C8.70525 2.36146 9.30397 2.39271 9.7177 2.4552C9.74645 2.4602 9.82894 2.39021 9.88769 2.33771C9.92019 2.30771 9.91269 2.25647 9.87269 2.23772C9.7427 2.17897 9.44896 2.07397 8.99399 2.07397C8.57401 2.07397 8.27028 2.16272 8.11279 2.22397Z" fill="#94D1E0"/>
<path d="M12.4994 5.06111L11.9819 4.72238L13.7431 1.60254L14.2806 1.90627L12.4994 5.06111Z" fill="#82AEC0"/>
<path d="M14.8977 5.40121C15.0515 5.4462 15.2165 5.36121 15.264 5.20872C15.6691 3.91503 15.144 2.50761 13.8739 1.85389C12.5949 1.19518 11.206 1.62765 10.3972 2.73135C10.3059 2.85509 10.3272 3.02883 10.4422 3.13008C10.7035 3.36131 11.2835 3.79629 12.4399 4.38126C13.6613 4.99873 14.4989 5.28371 14.8977 5.40121Z" fill="#CC2929"/>
<path d="M14.2325 2.28755C14.2325 2.28755 14.5587 1.87132 14.085 1.60759C13.7163 1.4026 13.4825 1.85132 13.4825 1.85132C13.4013 2.00006 14.1762 2.39004 14.2325 2.28755Z" fill="#82AEC0"/>
<path d="M12.8832 1.98768C12.922 2.12017 12.7795 2.22892 12.6645 2.30516C12.3758 2.49765 12.1408 2.77014 11.9895 3.08262C11.917 3.23261 11.8358 3.41635 11.6696 3.4401C11.6033 3.44885 11.5383 3.42885 11.4758 3.40635C11.3796 3.37136 11.2858 3.33136 11.1946 3.28511C11.0858 3.23011 10.9746 3.16012 10.9246 3.04887C10.8596 2.90263 10.9208 2.73014 11.0083 2.59515C11.2171 2.27641 11.5571 2.07892 11.907 1.94893C12.1183 1.87018 12.7782 1.62895 12.8832 1.98768Z" fill="#FF4638"/>
<path d="M5.45358 5.06486L3.66992 1.90627L4.20864 1.60254L5.94105 4.67238L5.45358 5.06486Z" fill="#82AEC0"/>
<path d="M3.10359 5.40121C2.94982 5.4462 2.7848 5.36121 2.7373 5.20872C2.33225 3.91503 2.85731 2.50761 4.12747 1.85389C5.40638 1.19518 6.7953 1.62765 7.60416 2.73135C7.69542 2.85509 7.67416 3.02883 7.55915 3.13008C7.29787 3.36131 6.71779 3.79629 5.5614 4.38126C4.34 4.99873 3.50239 5.28371 3.10359 5.40121Z" fill="#CC2929"/>
<path d="M3.76868 2.28755C3.76868 2.28755 3.44245 1.87132 3.91617 1.60759C4.2849 1.4026 4.51864 1.85132 4.51864 1.85132C4.59989 2.00006 3.82493 2.39004 3.76868 2.28755Z" fill="#82AEC0"/>
<path d="M4.26602 3.0417C4.34727 3.21044 4.43851 3.37418 4.53975 3.53167C4.6635 3.72416 4.80724 3.93915 4.75474 4.16164C4.6935 4.41663 4.41101 4.53912 4.16227 4.62412C4.03478 4.66787 3.90854 4.71161 3.78105 4.75536C3.71355 4.77911 3.6423 4.80286 3.57106 4.79911C3.45856 4.79411 3.35732 4.72286 3.29357 4.63162C3.22857 4.54037 3.19608 4.43038 3.17108 4.32163C3.07733 3.90291 3.09608 3.45918 3.22482 3.0492C3.29982 2.81421 3.41731 2.56672 3.68355 2.54798C4.00728 2.52548 4.14478 2.78921 4.26602 3.0417Z" fill="#FF4638"/>
</svg>
