<?xml version="1.0" encoding="utf-8"?>
<!-- Generator: Adobe Illustrator 16.0.0, SVG Export Plug-In . SVG Version: 6.00 Build 0)  -->
<!DOCTYPE svg PUBLIC "-//W3C//DTD SVG 1.1//EN" "http://www.w3.org/Graphics/SVG/1.1/DTD/svg11.dtd">
<svg version="1.1" id="Layer_1" xmlns="http://www.w3.org/2000/svg" xmlns:xlink="http://www.w3.org/1999/xlink" x="0px" y="0px"
	 width="16px" height="18px" viewBox="0 0 16 18" enable-background="new 0 0 16 18" xml:space="preserve">
<g>
	<path fill="#D2D5D9" d="M16,6v9c0,1.65-1.35,3-3,3H3c-1.65,0-3-1.35-3-3V6H16z"/>
	<path fill="#8F959F" d="M16,5v1H0V5c0-1.65,1.35-3,3-3V1c0-0.55,0.45-1,1-1s1,0.45,1,1v1h6V1c0-0.55,0.45-1,1-1s1,0.45,1,1v1
		C14.65,2,16,3.35,16,5"/>
</g>
</svg>
