<?xml version="1.0" encoding="utf-8"?>
<!-- Generator: Adobe Illustrator 16.0.0, SVG Export Plug-In . SVG Version: 6.00 Build 0)  -->
<!DOCTYPE svg PUBLIC "-//W3C//DTD SVG 1.1//EN" "http://www.w3.org/Graphics/SVG/1.1/DTD/svg11.dtd">
<svg version="1.1" id="Layer_1" xmlns="http://www.w3.org/2000/svg" xmlns:xlink="http://www.w3.org/1999/xlink" x="0px" y="0px"
	 width="18px" height="18px" viewBox="0 0 18 18" enable-background="new 0 0 18 18" xml:space="preserve">
<g>
	<path fill="#D2D5D9" d="M14,0H4C1.79,0,0,1.79,0,4v10c0,2.21,1.79,4,4,4h10c2.21,0,4-1.79,4-4V4C18,1.79,16.21,0,14,0
		 M12.71,13.069C12.37,13.649,11.78,14,11.12,14H5.88c-0.66,0-1.25-0.351-1.59-0.931C3.92,12.45,3.91,11.67,4.25,11.04l2.61-3.93
		C7.2,6.52,7.8,6.17,8.46,6.17c0.68,0,1.28,0.37,1.62,0.98l2.62,3.81C13.09,11.67,13.08,12.45,12.71,13.069 M13.82,6.82
		C13.57,6.94,13.29,7,13,7c-1.1,0-2-0.9-2-2c0-0.29,0.061-0.57,0.18-0.82C11.49,3.49,12.19,3,13,3c1.101,0,2,0.9,2,2
		C15,5.81,14.51,6.51,13.82,6.82"/>
	<path fill="#8F959F" d="M12.71,13.069C12.37,13.649,11.78,14,11.12,14H5.88c-0.66,0-1.25-0.351-1.59-0.931
		C3.92,12.45,3.91,11.67,4.25,11.04l2.61-3.93C7.2,6.52,7.8,6.17,8.46,6.17c0.68,0,1.28,0.37,1.62,0.98l2.62,3.81
		C13.09,11.67,13.08,12.45,12.71,13.069"/>
	<path fill="#8F959F" d="M15,5c0,0.81-0.49,1.51-1.18,1.82C13.57,6.94,13.29,7,13,7c-1.1,0-2-0.9-2-2c0-0.29,0.06-0.57,0.18-0.82
		C11.49,3.49,12.19,3,13,3C14.1,3,15,3.9,15,5"/>
</g>
</svg>
