<svg width="18" height="18" viewBox="0 0 18 18" fill="none" xmlns="http://www.w3.org/2000/svg">
<path d="M15.6105 5.03662H2.39136L1.5 7.24526H16.5019L15.6105 5.03662Z" fill="#F44336"/>
<path d="M13.489 4.32654H4.5129C4.34538 4.32654 4.17786 4.35654 4.02159 4.41653L2.39014 5.0365H15.6105L13.9791 4.41653C13.8228 4.35654 13.6565 4.32654 13.489 4.32654Z" fill="#FF7555"/>
<path d="M15.9981 15.703H2.00381C1.72503 15.703 1.5 15.478 1.5 15.1992V7.24573H16.5019V15.1992C16.5019 15.478 16.2768 15.703 15.9981 15.703Z" fill="#C62828"/>
<path fill-rule="evenodd" clip-rule="evenodd" d="M16.5019 9.89673H1.5V9.63013H16.5019V9.89673Z" fill="#A80707"/>
<path d="M6.13166 9.16077H4.06677C3.94927 9.16077 3.85303 9.24326 3.85303 9.34451V10.5582C3.85303 10.6594 3.94802 10.7419 4.06677 10.7419H4.373V11.3744C4.373 11.6444 4.62674 11.8631 4.94047 11.8631H5.2592C5.57169 11.8631 5.82667 11.6444 5.82667 11.3744V10.7419H6.13291C6.2504 10.7419 6.34665 10.6594 6.34665 10.5582V9.34451C6.34415 9.24326 6.24915 9.16077 6.13166 9.16077Z" fill="#A80707"/>
<path d="M5.98531 10.4907H4.21165C4.13666 10.4907 4.07666 10.4307 4.07666 10.3557V9.07323C4.07666 8.99823 4.13666 8.93823 4.21165 8.93823H5.98406C6.05906 8.93823 6.11905 8.99823 6.11905 9.07323V10.3557C6.1203 10.4307 6.05906 10.4907 5.98531 10.4907Z" fill="#558EA0"/>
<path fill-rule="evenodd" clip-rule="evenodd" d="M5.69363 9.93138H4.50244V9.57764H5.69363V9.93138Z" fill="#332424"/>
<path d="M5.69363 9.57823H4.50244V8.91452C4.50244 8.71703 4.66243 8.55579 4.86117 8.55579H5.33615C5.53364 8.55579 5.69488 8.71578 5.69488 8.91452V9.57823H5.69363Z" fill="#82AEC0"/>
<path d="M4.50271 9.91089H5.6939V11.2333C5.6939 11.4308 5.53391 11.5921 5.33517 11.5921H4.8602C4.66271 11.5921 4.50146 11.4321 4.50146 11.2333V9.91089H4.50271Z" fill="#82AEC0"/>
<path d="M5.47923 10.9498C5.53297 10.9498 5.59672 10.9948 5.61172 11.0748C5.61922 11.1198 5.59422 11.2123 5.55922 11.2423C5.49548 11.2961 5.41048 11.3311 5.32174 11.3523C5.18424 11.3861 5.03425 11.3923 4.89801 11.3561C4.76177 11.3211 4.61927 11.2523 4.57803 11.1386C4.51553 10.9648 4.74927 10.9523 5.47923 10.9498Z" fill="#A1D5E5"/>
<path d="M13.9354 9.16077H11.8705C11.753 9.16077 11.6567 9.24326 11.6567 9.34451V10.5582C11.6567 10.6594 11.7517 10.7419 11.8705 10.7419H12.1767V11.3744C12.1767 11.6444 12.4304 11.8631 12.7442 11.8631H13.0629C13.3754 11.8631 13.6304 11.6444 13.6304 11.3744V10.7419H13.9366C14.0541 10.7419 14.1504 10.6594 14.1504 10.5582V9.34451C14.1491 9.24326 14.0541 9.16077 13.9354 9.16077Z" fill="#A80707"/>
<path d="M13.79 10.4907H12.0163C11.9413 10.4907 11.8813 10.4307 11.8813 10.3557V9.07323C11.8813 8.99823 11.9413 8.93823 12.0163 8.93823H13.7887C13.8637 8.93823 13.9237 8.99823 13.9237 9.07323V10.3557C13.9237 10.4307 13.8637 10.4907 13.79 10.4907Z" fill="#558EA0"/>
<path fill-rule="evenodd" clip-rule="evenodd" d="M13.4988 9.93138H12.3076V9.57764H13.4988V9.93138Z" fill="#332424"/>
<path d="M13.4988 9.57823H12.3076V8.91452C12.3076 8.71703 12.4676 8.55579 12.6663 8.55579H13.1413C13.3388 8.55579 13.5001 8.71578 13.5001 8.91452V9.57823H13.4988Z" fill="#82AEC0"/>
<path d="M12.3079 9.91089H13.4991V11.2333C13.4991 11.4308 13.3391 11.5921 13.1403 11.5921H12.6654C12.4679 11.5921 12.3066 11.4321 12.3066 11.2333V9.91089H12.3079Z" fill="#82AEC0"/>
<path d="M13.3203 10.9499C13.3578 10.9511 13.4266 10.9624 13.4516 11.0361C13.4766 11.1099 13.4266 11.1874 13.3628 11.2411C13.2991 11.2949 13.2141 11.3299 13.1253 11.3511C12.9878 11.3849 12.8379 11.3911 12.7016 11.3549C12.5654 11.3199 12.4429 11.2424 12.3816 11.1374C12.2841 10.9711 12.6104 10.9199 13.3203 10.9499Z" fill="#A1D5E5"/>
<path d="M12.3175 4.38119C12.2587 4.30244 12.0662 4.22245 12.0099 4.18995C11.6336 3.96621 11.6724 3.34999 11.4198 2.95002C11.1948 2.59253 10.7935 2.30005 10.371 2.30005C10.371 2.30005 9.79214 2.30005 9.20582 2.30005C9.19582 2.30005 9.18707 2.30005 9.17707 2.30005C8.58949 2.30005 8.01192 2.30005 8.01192 2.30005C7.58937 2.30005 7.18807 2.59378 6.96304 2.95002C6.71051 3.34999 6.74926 3.96621 6.37297 4.18995C6.31796 4.22245 6.12419 4.30369 6.06543 4.38119C5.99292 4.47869 6.06543 4.58118 6.06543 4.58118C6.06543 4.58118 6.62425 4.58118 6.74801 4.58118C7.08181 4.58118 7.26933 4.01996 7.29808 3.94371C7.41185 3.63123 7.61937 3.17 8.01192 3.17C8.01192 3.17 8.59075 3.17 9.17707 3.17C9.18707 3.17 9.19582 3.17 9.20582 3.17C9.7934 3.17 10.371 3.17 10.371 3.17C10.7635 3.17 10.971 3.63248 11.0848 3.94371C11.1123 4.01996 11.2998 4.58118 11.6349 4.58118C11.7586 4.58118 12.3175 4.58118 12.3175 4.58118C12.3175 4.58118 12.39 4.47869 12.3175 4.38119Z" fill="#424242"/>
<path d="M7.40328 2.67376C7.58202 2.52502 7.81326 2.43627 8.04575 2.43877C8.1095 2.44002 8.17574 2.44752 8.22949 2.48252C8.28324 2.51752 8.32074 2.58376 8.30449 2.64626C8.28699 2.71251 8.21824 2.75126 8.15449 2.77625C7.92326 2.86625 7.65577 2.88625 7.47203 3.05124C7.34579 3.16498 7.27954 3.32873 7.18955 3.47247C7.1458 3.54246 7.08705 3.61371 7.00456 3.62246C6.97581 3.62496 6.94456 3.61871 6.92581 3.59746C6.89331 3.55996 6.91331 3.50247 6.93456 3.45872C7.00331 3.31623 7.0433 3.16623 7.11705 3.02749C7.19455 2.885 7.29579 2.7875 7.40328 2.67376Z" fill="#616161"/>
<path d="M12.9487 8.93221C12.7887 8.93846 12.6337 9.0222 12.5537 9.1472C12.535 9.17595 12.5087 9.21094 12.4737 9.20345C12.4462 9.1972 12.435 9.16845 12.4287 9.14345C12.4025 9.03845 12.3937 8.91721 12.455 8.82097C12.5187 8.71972 12.6425 8.66097 12.7624 8.64597C13.0049 8.61723 13.1849 8.60598 13.2262 8.75722C13.2762 8.93596 13.0762 8.92721 12.9487 8.93221Z" fill="#A1D5E5"/>
<path d="M5.15083 8.93209C4.99084 8.93834 4.83585 9.02208 4.75585 9.14708C4.73711 9.17582 4.71086 9.21082 4.67586 9.20332C4.64836 9.19707 4.63711 9.16832 4.63086 9.14333C4.60461 9.03833 4.59586 8.91709 4.65711 8.82084C4.72086 8.7196 4.8446 8.66085 4.96459 8.64585C5.20708 8.6171 5.38707 8.60585 5.42832 8.7571C5.47707 8.93584 5.27833 8.92709 5.15083 8.93209Z" fill="#A1D5E5"/>
</svg>
