<?xml version="1.0" encoding="utf-8"?>
<!-- Generator: Adobe Illustrator 28.3.0, SVG Export Plug-In . SVG Version: 6.00 Build 0)  -->
<svg version="1.1" id="Layer_1" xmlns="http://www.w3.org/2000/svg" xmlns:xlink="http://www.w3.org/1999/xlink" x="0px" y="0px"
	 viewBox="0 0 18 18" style="enable-background:new 0 0 18 18;" xml:space="preserve">
<style type="text/css">
	.st0{fill:#CCCCCC;}
</style>
<g>
	<path class="st0" d="M17.71,16.29l-3.39-3.39C15.37,11.54,16,9.85,16,8c0-4.41-3.59-8-8-8S0,3.59,0,8s3.59,8,8,8
		c1.85,0,3.54-0.63,4.9-1.69l3.4,3.4C16.49,17.9,16.74,18,17,18c0.26,0,0.51-0.1,0.71-0.29C18.1,17.32,18.1,16.68,17.71,16.29 M2,8
		c0-3.31,2.69-6,6-6s6,2.69,6,6s-2.69,6-6,6S2,11.31,2,8"/>
</g>
</svg>
