<svg width="18" height="18" viewBox="0 0 18 18" fill="none" xmlns="http://www.w3.org/2000/svg">
<path d="M14.929 15.1692H3.07248C2.73494 15.1692 2.4624 14.8954 2.4624 14.5591V6.25434C2.4624 5.34547 3.16874 4.60913 4.0401 4.60913H13.9626C14.834 4.60913 15.5403 5.34547 15.5403 6.25434V13.904V14.5591C15.5403 14.8967 15.2665 15.1692 14.929 15.1692Z" fill="#FAFAFA"/>
<path fill-rule="evenodd" clip-rule="evenodd" d="M4.04012 4.79668C3.27964 4.79668 2.64995 5.4416 2.64995 6.25436V14.5592C2.64995 14.7921 2.83878 14.9817 3.0725 14.9817H14.929C15.1635 14.9817 15.3528 14.7926 15.3528 14.5592V6.25436C15.3528 5.4416 14.7231 4.79668 13.9626 4.79668H4.04012ZM2.2749 6.25436C2.2749 5.2494 3.05789 4.42163 4.04012 4.42163H13.9626C14.9449 4.42163 15.7278 5.2494 15.7278 6.25436V14.5592C15.7278 15.0008 15.3696 15.3568 14.929 15.3568H3.0725C2.63114 15.3568 2.2749 14.9988 2.2749 14.5592V6.25436Z" fill="#BDBDBD"/>
<path d="M7.65288 13.7905H6.58169V9.65873L5.30176 10.055V9.18367L7.53789 8.38232H7.65288V13.7905Z" fill="black"/>
<path d="M12.6995 8.98869L10.6121 13.7905H9.48093L11.5721 9.25497H8.88721V8.39111H12.6995V8.98869Z" fill="black"/>
<path d="M15.0152 1.5H14.4151C14.2901 1.5 14.1889 1.60126 14.1889 1.72628V2.23759C14.1889 2.32135 14.2364 2.39386 14.3076 2.43762C14.5589 2.58764 14.7127 2.88392 14.6464 3.20896C14.5902 3.484 14.3701 3.70653 14.0951 3.76403C13.6288 3.8628 13.2162 3.50775 13.2162 3.0577C13.2162 2.79266 13.3588 2.56138 13.5725 2.43637C13.6438 2.39386 13.69 2.32135 13.69 2.23884V1.72628C13.69 1.60126 13.5888 1.5 13.4638 1.5H4.5339C4.41138 1.5 4.31262 1.59876 4.31262 1.72128V2.24134C4.31262 2.3226 4.35888 2.39386 4.42888 2.43512C4.68142 2.58389 4.83643 2.88267 4.77018 3.20771C4.71392 3.48275 4.49389 3.70528 4.21886 3.76278C3.75255 3.86155 3.34 3.5065 3.34 3.05645C3.34 2.79016 3.48502 2.55888 3.69879 2.43262C3.76755 2.39261 3.81256 2.3201 3.81256 2.24009V1.72128C3.81256 1.59876 3.71379 1.5 3.59128 1.5H2.98495C2.58865 1.5 2.26611 1.82129 2.26611 2.21884V6.90943H15.714L15.734 2.22259C15.7365 1.82379 15.414 1.5 15.0152 1.5Z" fill="#F44336"/>
<path d="M6.6365 2.93286H7.15147V4.66277C7.15147 4.82151 7.11648 4.96276 7.04648 5.084C6.97648 5.20524 6.87649 5.30024 6.749 5.36648C6.62025 5.43273 6.47651 5.46648 6.31527 5.46648C6.05153 5.46648 5.84529 5.39898 5.6978 5.26524C5.55031 5.1315 5.47656 4.94026 5.47656 4.69527H5.99528C5.99528 4.81776 6.02153 4.90776 6.07278 4.96651C6.12403 5.02525 6.20527 5.054 6.31652 5.054C6.41526 5.054 6.49276 5.02025 6.55151 4.95276C6.61025 4.88526 6.639 4.78901 6.639 4.66402V2.93286H6.6365Z" fill="white"/>
<path d="M8.67176 5.24285C8.54926 5.39159 8.38052 5.46534 8.16428 5.46534C7.96554 5.46534 7.81305 5.40784 7.70931 5.2941C7.60431 5.18036 7.55057 5.01161 7.54932 4.79163V3.57544H8.04554V4.77663C8.04554 4.97037 8.13304 5.06661 8.30928 5.06661C8.47802 5.06661 8.59301 5.00786 8.65551 4.89162V3.57544H9.15298V5.43159H8.68676L8.67176 5.24285Z" fill="white"/>
<path d="M10.0497 5.43149H9.55225V2.79663H10.0497V5.43149Z" fill="white"/>
<path d="M11.1509 4.72891L11.4946 3.57397H12.0271L11.2809 5.71886L11.2396 5.81636C11.1284 6.05884 10.9459 6.18009 10.6909 6.18009C10.6184 6.18009 10.5459 6.16884 10.4709 6.14759V5.77136L10.5459 5.77261C10.6397 5.77261 10.7097 5.75886 10.7559 5.73011C10.8022 5.70136 10.8384 5.65387 10.8647 5.58762L10.9234 5.43513L10.2734 3.57397H10.8072L11.1509 4.72891Z" fill="white"/>
</svg>
