<?xml version="1.0" encoding="utf-8"?>
<!-- Generator: Adobe Illustrator 16.0.0, SVG Export Plug-In . SVG Version: 6.00 Build 0)  -->
<!DOCTYPE svg PUBLIC "-//W3C//DTD SVG 1.1//EN" "http://www.w3.org/Graphics/SVG/1.1/DTD/svg11.dtd">
<svg version="1.1" id="Layer_1" xmlns="http://www.w3.org/2000/svg" xmlns:xlink="http://www.w3.org/1999/xlink" x="0px" y="0px"
	 width="10px" height="6px" viewBox="0 0 10 6" enable-background="new 0 0 10 6" xml:space="preserve">
<g>
	<path fill="#505050" d="M4,5c0,0.256,0.098,0.512,0.293,0.707c0.391,0.391,1.023,0.391,1.414,0l4-4
		c0.391-0.391,0.391-1.023,0-1.414s-1.023-0.391-1.414,0l-4,4C4.098,4.488,4,4.744,4,5"/>
	<path fill="#505050" d="M0,1c0,0.256,0.098,0.512,0.293,0.707l4,4c0.391,0.391,1.023,0.391,1.414,0s0.391-1.023,0-1.414l-4-4
		c-0.391-0.391-1.023-0.391-1.414,0C0.098,0.488,0,0.744,0,1"/>
</g>
</svg>
