<?xml version="1.0" encoding="utf-8"?>
<!-- Generator: Adobe Illustrator 24.0.2, SVG Export Plug-In . SVG Version: 6.00 Build 0)  -->
<svg version="1.1" id="Layer_1" xmlns="http://www.w3.org/2000/svg" xmlns:xlink="http://www.w3.org/1999/xlink" x="0px" y="0px"
	 viewBox="0 0 14 14" style="enable-background:new 0 0 14 14;" xml:space="preserve">
<style type="text/css">
	.st0{fill:#292929;}
</style>
<g>
	<path class="st0" d="M13,14c-0.26,0-0.51-0.1-0.71-0.29l-12-12c-0.39-0.39-0.39-1.02,0-1.41s1.02-0.39,1.41,0l12,12
		c0.39,0.39,0.39,1.02,0,1.41C13.51,13.9,13.26,14,13,14"/>
	<path class="st0" d="M1,14c-0.26,0-0.51-0.1-0.71-0.29c-0.39-0.39-0.39-1.02,0-1.41l12-12c0.39-0.39,1.02-0.39,1.41,0
		s0.39,1.02,0,1.41l-12,12C1.51,13.9,1.26,14,1,14"/>
</g>
</svg>
