<?xml version="1.0" encoding="utf-8"?>
<!-- Generator: Adobe Illustrator 24.0.2, SVG Export Plug-In . SVG Version: 6.00 Build 0)  -->
<svg version="1.1" id="Layer_1" xmlns="http://www.w3.org/2000/svg" xmlns:xlink="http://www.w3.org/1999/xlink" x="0px" y="0px"
	 viewBox="0 0 24 18" style="enable-background:new 0 0 24 18;" xml:space="preserve">
<style type="text/css">
	.st0{fill:#292929;}
</style>
<g>
	<path class="st0" d="M23,2H1C0.45,2,0,1.55,0,1s0.45-1,1-1h22c0.55,0,1,0.45,1,1S23.55,2,23,2"/>
	<path class="st0" d="M23,10H1c-0.55,0-1-0.45-1-1s0.45-1,1-1h22c0.55,0,1,0.45,1,1S23.55,10,23,10"/>
	<path class="st0" d="M23,18H1c-0.55,0-1-0.45-1-1s0.45-1,1-1h22c0.55,0,1,0.45,1,1S23.55,18,23,18"/>
</g>
</svg>
