<?xml version="1.0" encoding="utf-8"?>
<!-- Generator: Adobe Illustrator 28.3.0, SVG Export Plug-In . SVG Version: 6.00 Build 0)  -->
<svg version="1.1" id="Layer_1" xmlns="http://www.w3.org/2000/svg" xmlns:xlink="http://www.w3.org/1999/xlink" x="0px" y="0px"
	 viewBox="0 0 22 19" style="enable-background:new 0 0 22 19;" xml:space="preserve">
<style type="text/css">
	.st0{fill:#8F959E;}
</style>
<g>
	<g>
		<path class="st0" d="M21.29,14.51L13.55,1.57c-1.16-1.95-3.99-1.95-5.15,0L0.66,14.51c-1.2,2,0.25,4.54,2.58,4.54h15.48
			C21.05,19.05,22.49,16.51,21.29,14.51 M9.87,6.3c0-0.61,0.49-1.1,1.1-1.1c0.61,0,1.1,0.49,1.1,1.1v5c0,0.61-0.49,1.1-1.1,1.1
			c-0.61,0-1.1-0.49-1.1-1.1V6.3z M10.97,16.28c-0.66,0-1.2-0.54-1.2-1.2s0.54-1.2,1.2-1.2c0.66,0,1.2,0.54,1.2,1.2
			S11.64,16.28,10.97,16.28"/>
	</g>
</g>
</svg>
