<?xml version="1.0" encoding="utf-8"?>
<!-- Generator: Adobe Illustrator 28.3.0, SVG Export Plug-In . SVG Version: 6.00 Build 0)  -->
<svg version="1.1" id="Layer_1" xmlns="http://www.w3.org/2000/svg" xmlns:xlink="http://www.w3.org/1999/xlink" x="0px" y="0px"
	 viewBox="0 0 6 12" style="enable-background:new 0 0 6 12;" xml:space="preserve">
<style type="text/css">
	.st0{fill:#606162;}
</style>
<polygon class="st0" points="2,5 3,5 3,4 4,4 4,3 5,3 5,2 6,2 6,0 5,0 5,1 4,1 4,2 3,2 3,3 2,3 2,4 1,4 1,5 0,5 0,7 1,7 1,8 2,8 
	2,9 3,9 3,10 4,10 4,11 5,11 5,12 6,12 6,10 5,10 5,9 4,9 4,8 3,8 3,7 2,7 2,6 "/>
</svg>
