<?xml version="1.0" encoding="utf-8"?>
<!-- Generator: Adobe Illustrator 28.3.0, SVG Export Plug-In . SVG Version: 6.00 Build 0)  -->
<svg version="1.1" id="Layer_1" xmlns="http://www.w3.org/2000/svg" xmlns:xlink="http://www.w3.org/1999/xlink" x="0px" y="0px"
	 viewBox="0 0 6 12" style="enable-background:new 0 0 6 12;" xml:space="preserve">
<style type="text/css">
	.st0{fill:#606162;}
</style>
<polygon class="st0" points="4,7 3,7 3,8 2,8 2,9 1,9 1,10 0,10 0,12 1,12 1,11 2,11 2,10 3,10 3,9 4,9 4,8 5,8 5,7 6,7 6,5 5,5 
	5,4 4,4 4,3 3,3 3,2 2,2 2,1 1,1 1,0 0,0 0,2 1,2 1,3 2,3 2,4 3,4 3,5 4,5 4,6 "/>
</svg>
