<?xml version="1.0" encoding="utf-8"?>
<!-- Generator: Adobe Illustrator 28.3.0, SVG Export Plug-In . SVG Version: 6.00 Build 0)  -->
<svg version="1.1" id="Layer_1" xmlns="http://www.w3.org/2000/svg" xmlns:xlink="http://www.w3.org/1999/xlink" x="0px" y="0px"
	 viewBox="0 0 20 20" style="enable-background:new 0 0 20 20;" xml:space="preserve">
<style type="text/css">
	.st0{fill:#292929;}
</style>
<g>
	<path class="st0" d="M19,20c-0.26,0-0.51-0.1-0.71-0.29l-18-18c-0.39-0.39-0.39-1.02,0-1.41c0.39-0.39,1.02-0.39,1.41,0l18,18
		c0.39,0.39,0.39,1.02,0,1.41C19.51,19.9,19.26,20,19,20"/>
	<path class="st0" d="M1,20c-0.26,0-0.51-0.1-0.71-0.29c-0.39-0.39-0.39-1.02,0-1.41l18-18c0.39-0.39,1.02-0.39,1.41,0
		c0.39,0.39,0.39,1.02,0,1.41l-18,18C1.51,19.9,1.26,20,1,20"/>
</g>
</svg>
