<?xml version="1.0" encoding="utf-8"?>
<!-- Generator: Adobe Illustrator 16.0.0, SVG Export Plug-In . SVG Version: 6.00 Build 0)  -->
<!DOCTYPE svg PUBLIC "-//W3C//DTD SVG 1.1//EN" "http://www.w3.org/Graphics/SVG/1.1/DTD/svg11.dtd">
<svg version="1.1" id="Layer_1" xmlns="http://www.w3.org/2000/svg" xmlns:xlink="http://www.w3.org/1999/xlink" x="0px" y="0px"
	 width="12px" height="6px" viewBox="0 0 12 6" enable-background="new 0 0 12 6" xml:space="preserve">
<polygon fill="#999999" points="10,0 10,1 9,1 9,2 8,2 8,3 7,3 7,4 6,4 5,4 5,3 4,3 4,2 3,2 3,1 2,1 2,0 0,0 0,1 1,1 1,2 2,2 2,3 
	3,3 3,4 4,4 4,5 5,5 5,6 7,6 7,5 8,5 8,4 9,4 9,3 10,3 10,2 11,2 11,1 12,1 12,0 "/>
</svg>
