<?xml version="1.0" encoding="utf-8"?>
<!-- Generator: Adobe Illustrator 28.3.0, SVG Export Plug-In . SVG Version: 6.00 Build 0)  -->
<svg version="1.1" id="Layer_1" xmlns="http://www.w3.org/2000/svg" xmlns:xlink="http://www.w3.org/1999/xlink" x="0px" y="0px"
	 viewBox="0 0 8 14" style="enable-background:new 0 0 8 14;" xml:space="preserve">
<style type="text/css">
	.st0{fill:#595959;}
</style>
<g>
	<path class="st0" d="M1,8C0.74,8,0.49,7.9,0.29,7.71c-0.39-0.39-0.39-1.02,0-1.41l6-6c0.39-0.39,1.02-0.39,1.41,0s0.39,1.02,0,1.41
		l-6,6C1.51,7.9,1.26,8,1,8"/>
	<path class="st0" d="M7,14c-0.26,0-0.51-0.1-0.71-0.29l-6-6c-0.39-0.39-0.39-1.02,0-1.41c0.39-0.39,1.02-0.39,1.41,0l6,6
		c0.39,0.39,0.39,1.02,0,1.41C7.51,13.9,7.26,14,7,14"/>
</g>
</svg>
