<?xml version="1.0" encoding="utf-8"?>
<!-- Generator: Adobe Illustrator 28.3.0, SVG Export Plug-In . SVG Version: 6.00 Build 0)  -->
<svg version="1.1" id="Layer_1" xmlns="http://www.w3.org/2000/svg" xmlns:xlink="http://www.w3.org/1999/xlink" x="0px" y="0px"
	 viewBox="0 0 8 14" style="enable-background:new 0 0 8 14;" xml:space="preserve">
<style type="text/css">
	.st0{fill:#595959;}
</style>
<g>
	<path class="st0" d="M7,6c0.26,0,0.51,0.1,0.71,0.29c0.39,0.39,0.39,1.02,0,1.41l-6,6c-0.39,0.39-1.02,0.39-1.41,0
		s-0.39-1.02,0-1.41l6-6C6.49,6.1,6.74,6,7,6"/>
	<path class="st0" d="M1,0c0.26,0,0.51,0.1,0.71,0.29l6,6c0.39,0.39,0.39,1.02,0,1.41c-0.39,0.39-1.02,0.39-1.41,0l-6-6
		c-0.39-0.39-0.39-1.02,0-1.41C0.49,0.1,0.74,0,1,0"/>
</g>
</svg>
