<?xml version="1.0" encoding="utf-8"?>
<!-- Generator: Adobe Illustrator 16.0.0, SVG Export Plug-In . SVG Version: 6.00 Build 0)  -->
<!DOCTYPE svg PUBLIC "-//W3C//DTD SVG 1.1//EN" "http://www.w3.org/Graphics/SVG/1.1/DTD/svg11.dtd">
<svg version="1.1" id="Layer_1" xmlns="http://www.w3.org/2000/svg" xmlns:xlink="http://www.w3.org/1999/xlink" x="0px" y="0px"
	 width="872.586px" height="153.264px" viewBox="0 0 872.586 153.264" enable-background="new 0 0 872.586 153.264"
	 xml:space="preserve">
<path fill="#0062B4" d="M82.869,130.645l13.833-32.046l0.083,32.194L82.869,130.645z M119.39,96.812l14.78,33.938l-14.893,0.172
	L119.39,96.812z M59.764,0L0.046,0.011L0,22.36l19.256,0.116l29.059,108.193l-22.418,0.335l0.141,22.26l164.24-0.009l0.25-22.242
	l-26.09-0.258L193.519,22.48l19.282-0.148l-0.032-22.331l-59.735,0.003l-0.031,22.324l17.195,0.203l-22.338,82.742l-28.514-65.746
	l-0.064-17.031l17.932-0.182L137.174,0L77.446,0.004l-0.027,22.326l19.358,0.196l-0.09,19.493l-30.134,69.681L42.578,22.505
	l17.218-0.187L59.764,0z"/>
<polygon fill="#0062B4" points="320.228,2.353 335.7,2.246 313.995,80.783 299.242,80.989 284.444,25.092 269.083,80.936 
	254.159,80.997 232.726,2.246 249.216,2.29 262.433,55.571 277.025,2.312 292.023,2.275 306.549,55.651 "/>
<g>
	<path fill="#0062B4" d="M392.935,78.378c-11.138,5.21-23.829,5.055-34.642,0.073c-9.188-4.233-14.777-13.443-15.827-23.493
		c-0.944-9.031-0.939-18.04,0.019-27.069c1.094-10.31,7.126-19.429,16.535-23.55c10.526-4.609,22.369-4.672,32.935-0.102
		c9.374,4.055,15.451,13.05,16.62,23.268c1.055,9.221,1.038,18.48,0.029,27.728C407.539,64.997,402.172,74.058,392.935,78.378
		 M392.497,54.039c1.186-8.251,1.115-17.089,0.048-24.968c-1.239-9.147-8.093-13.611-16.705-13.678
		c-8.596-0.066-15.724,4.134-17.15,13.29c-1.263,8.107-1.259,17.262-0.032,25.399c1.376,9.131,8.553,13.656,17.169,13.58
		C384.197,67.587,391.167,63.295,392.497,54.039"/>
	<path fill="#0062B4" d="M470.047,78.282c-11.087,5.281-23.808,5.184-34.663,0.263c-9.149-4.146-14.875-13.239-15.971-23.178
		c-1.008-9.14-0.99-18.191-0.047-27.386c0.933-9.102,5.786-17.747,13.818-22.224c11.761-6.555,26.495-6.582,38.306-0.119
		c8.372,4.581,13.245,13.523,14.125,22.948c0.825,8.837,0.866,17.485-0.063,26.273C484.515,64.665,479.307,73.871,470.047,78.282
		 M469.457,53.66c1.029-7.892,0.987-16.09,0.093-23.838c-0.549-4.747-2.854-9.692-7.064-11.979
		c-5.979-3.248-13.783-3.265-19.81-0.078c-4.181,2.212-6.648,7.042-7.266,11.774c-1.047,8.021-1.029,16.422,0.058,24.185
		c1.284,9.173,8.164,13.908,16.8,13.946C460.951,67.707,468.201,63.277,469.457,53.66"/>
	<polygon fill="#0062B4" points="593.962,80.888 574.153,81.098 551.375,48.835 545.297,54.894 545.259,81.04 529.393,80.959 
		529.418,2.13 545.255,2.246 545.332,35.234 573.742,2.219 592.111,2.463 561.979,37.058 	"/>
	<polygon fill="#0062B4" points="369.137,149.858 368.988,115.455 358.358,142.118 350.961,142.169 340.145,114.773 
		340.139,149.744 331.256,149.735 331.223,102.76 343.882,102.534 354.747,129.37 365.252,102.618 378.132,102.626 378.131,149.701 
			"/>
	<rect x="498.432" y="1.984" fill="#0062B4" width="15.862" height="79.048"/>
	<polygon fill="#0062B4" points="564.11,149.623 553.761,149.942 535.932,118.432 536.03,149.825 527.049,149.713 527.049,102.614 
		537.623,102.701 555.201,133.974 555.118,102.604 564.089,102.65 	"/>
	<path fill="#0062B4" d="M862.605,150.119l-7.98-18.69l-8.197-0.045l-0.104,18.403l-9.485-0.125l0.016-47.084l21.242,0.297
		c7.836,0.109,12.693,6.655,12.537,13.926c-0.118,5.512-1.896,10.059-7.021,12.77l8.975,19.929L862.605,150.119z M861.16,116.439
		c-0.111-2.85-1.933-5.554-4.745-5.612l-10.029-0.208l0.046,12.771c3.749,0.048,6.888,0.08,10.061-0.351
		C859.824,122.587,861.3,119.961,861.16,116.439"/>
	<path fill="#0062B4" d="M618.508,134.101c-0.685,8.909-7.352,14.952-16.107,15.466c-6.779,0.398-13.311,0.283-20.927,0.257
		l-0.004-47.243c7.624,0.036,14.224-0.106,21.08,0.311c8.351,0.508,14.729,6.407,15.786,14.557
		C619.035,122.838,618.955,128.299,618.508,134.101 M608.894,118.941c-0.976-9.054-11.263-8.297-17.967-8.214l-0.011,30.856
		c3.51,0.001,6.476-0.012,9.758-0.22C610.978,140.711,609.661,126.054,608.894,118.941"/>
	<path fill="#0062B4" d="M510.928,134.759c-1.506,13.021-14.237,17.752-26.178,14.975c-14.861-3.457-14.516-19.262-13.405-31.461
		c0.438-4.823,2.873-9.592,6.739-12.384c6.462-4.666,14.526-5.084,21.974-2.399C512.626,108.021,512.248,123.336,510.928,134.759
		 M491.027,141.803c5.165,0.094,9.556-2.578,10.286-7.979c0.657-4.856,0.638-10.381,0.021-15.234
		c-0.697-5.473-5.05-8.051-10.074-8.022c-5.109,0.031-9.402,2.502-10.182,8.021c-0.686,4.863-0.7,10.365,0.022,15.229
		C481.884,139.077,485.949,141.711,491.027,141.803"/>
	<path fill="#0062B4" d="M812.457,147.673c-6.925,3.819-15.091,3.786-21.936,0.528c-11.003-5.239-10.427-19.771-9.273-30.389
		c1.355-12.486,13.062-17.519,24.83-15.465c8,1.396,13.94,7.552,14.744,15.772C821.784,127.959,822.548,142.109,812.457,147.673
		 M800.547,141.836c5.6,0.24,9.975-2.805,10.668-8.414c0.592-4.793,0.591-10.213-0.083-14.972c-0.743-5.249-4.845-7.706-9.683-7.86
		c-5.287-0.169-9.836,2.458-10.59,8.146C789.671,127.706,788.643,141.327,800.547,141.836"/>
	<path fill="#0062B4" d="M661.322,102.732l9.449-0.122l-0.164,31.479c-0.028,5.385-2.459,11.449-7.325,13.971
		c-6.645,3.442-15.189,3.452-21.894,0.123c-4.962-2.465-7.479-8.52-7.518-13.964l-0.223-31.554l9.437-0.073l0.179,30.838
		c0.014,2.132,1.413,5.407,2.721,6.579c1.638,1.47,4.575,2.011,6.958,1.966c4.497-0.085,8.14-3.24,8.172-7.998L661.322,102.732z"/>
	<polygon fill="#0062B4" points="313.688,129.617 293.481,129.681 293.612,142.028 315.384,141.976 315.31,149.84 284.054,149.833 
		284.054,102.588 314.897,102.615 315.042,110.517 293.527,110.663 293.594,121.886 313.654,121.867 	"/>
	<path fill="#0062B4" d="M260.374,148.853c-9.072,3.222-18.419,1.838-26.621-3.835l4.267-7.737
		c5.926,5.027,20.05,7.196,20.926,0.167c0.351-2.809-1.223-5.107-4.092-5.88l-11.127-2.994c-5.913-1.591-9.291-6.509-9.211-12.474
		c0.08-6.009,3.393-11.144,9.361-13.022c7.634-2.4,16.054-1.369,23.002,3.037l-4.359,7.263c-5.456-3.856-18.445-4.651-18.555,2.353
		c-0.146,9.298,24.665,2.161,24.542,20.579C268.471,141.724,266.032,146.843,260.374,148.853"/>
	<path fill="#0062B4" d="M436.014,140.63c6.306,2.368,12.223,0.424,17.255-3.979l4.998,7.161c-5.65,5.768-12.606,6.995-20.105,6.61
		c-8.962-0.46-16.332-6.74-17.181-15.965c-0.509-5.531-0.551-11.466,0.124-16.93c1.089-8.823,7.933-14.753,16.409-15.45
		c7.235-0.596,14.271,0.347,19.666,5.528l-5.066,7.054c-4.882-3.901-11.139-5.332-17.001-2.634
		c-5.899,2.716-5.148,15.176-4.555,20.756C430.863,135.668,433.047,139.516,436.014,140.63"/>
	<path fill="#0062B4" d="M705.125,141.62c5.563,0.143,9.376-1.421,13.16-5.001l4.99,7.183c-5.383,5.616-12.379,6.922-19.798,6.644
		c-8.985-0.338-16.514-6.498-17.462-15.777c-1.023-10.013-1.685-24.469,8.309-29.943c8.909-4.88,20.159-3.477,27.939,2.697
		l-5.105,7.227c-4.969-3.908-11.044-5.246-16.862-2.716c-6.232,2.709-5.453,16.193-4.53,21.654
		C696.543,138.191,700.271,141.496,705.125,141.62"/>
	<path fill="#0062B4" d="M756.215,149.267c-2.893,0.681-6.018,0.662-9.486,0.446l-0.052-38.947l-13.268-0.108l-0.134-8.046
		l36.224-0.017l0.132,8.045l-13.427,0.074L756.215,149.267z"/>
	<rect x="395.49" y="102.529" fill="#0062B4" width="9.507" height="47.324"/>
</g>
</svg>
